<svg id="svg" version="1.1" width="512" height="512" xmlns="http://www.w3.org/2000/svg" xmlns:xlink="http://www.w3.org/1999/xlink" ><g id="svgg">
    <path id="path0" d="M10.238 2.059 C 5.735 4.302,2.070 8.607,0.740 13.212 C 0.189 15.120,0.004 73.270,0.161 195.313 L 0.391 374.609 3.063 380.078 C 6.559 387.234,12.766 393.441,19.922 396.937 L 25.391 399.609 206.311 399.609 L 387.232 399.609 391.056 397.245 C 393.427 395.780,395.780 393.427,397.245 391.056 L 399.609 387.232 399.823 260.999 C 400.064 118.624,400.611 130.926,393.773 124.779 C 389.231 120.695,385.709 119.531,377.895 119.531 L 371.986 119.531 371.735 102.930 C 371.504 87.608,371.352 86.081,369.773 83.129 C 366.783 77.543,359.939 72.656,355.103 72.656 L 353.125 72.656 353.125 56.225 C 353.125 35.923,351.693 31.940,342.652 27.102 L 339.453 25.391 245.125 25.183 L 150.796 24.975 144.762 17.761 C 128.469 -1.718,135.818 0.000,68.764 -0.000 L 14.369 -0.000 10.238 2.059 M126.594 34.209 C 132.622 41.372,136.764 45.569,139.094 46.875 L 142.578 48.828 236.133 49.036 L 329.687 49.243 329.688 60.950 L 329.688 72.656 209.741 72.656 C 78.409 72.656,87.479 72.322,81.733 77.367 C 75.868 82.517,75.422 84.246,75.140 102.930 L 74.889 119.531 68.980 119.531 C 61.325 119.531,57.737 120.666,53.443 124.446 C 46.650 130.425,47.314 117.726,46.875 250.000 L 46.484 367.578 44.781 370.313 C 40.191 377.678,30.122 377.678,25.532 370.313 L 23.828 367.578 23.624 195.508 L 23.420 23.438 70.499 23.467 L 117.578 23.497 126.594 34.209 M347.656 107.813 L 347.656 119.531 223.438 119.531 L 99.219 119.531 99.219 107.813 L 99.219 96.094 223.438 96.094 L 347.656 96.094 347.656 107.813 M376.563 260.156 L 376.563 376.563 222.676 376.563 L 68.789 376.563 69.551 374.559 C 70.033 373.290,70.312 330.594,70.313 258.152 L 70.313 143.750 223.438 143.750 L 376.563 143.750 376.563 260.156 M217.879 167.437 C 211.259 169.913,210.645 170.794,198.678 195.000 C 191.929 208.651,186.829 218.063,186.059 218.287 C 185.348 218.495,174.570 220.112,162.109 221.882 C 131.329 226.253,127.466 228.257,126.703 240.248 C 126.152 248.907,126.438 249.322,146.646 269.141 L 164.968 287.109 161.000 310.186 C 155.821 340.303,155.939 343.011,162.701 348.947 C 170.708 355.978,174.403 355.227,201.395 341.090 L 223.435 329.546 245.506 341.091 C 272.525 355.223,276.180 355.966,284.174 348.947 C 290.936 343.011,291.054 340.304,285.876 310.186 L 281.908 287.109 300.235 269.141 C 320.449 249.321,320.724 248.922,320.172 240.248 C 319.408 228.243,315.526 226.229,284.766 221.885 C 272.305 220.125,261.502 218.436,260.759 218.132 C 259.993 217.818,254.713 208.110,248.561 195.703 C 242.595 183.672,236.835 172.895,235.761 171.755 C 231.524 167.257,223.526 165.326,217.879 167.437 M232.022 217.283 C 243.813 241.355,242.289 240.197,266.812 243.724 C 276.257 245.083,284.807 246.446,285.813 246.753 C 287.486 247.265,286.479 248.448,273.970 260.666 C 254.901 279.293,255.510 277.394,260.114 303.832 C 261.866 313.889,263.195 322.221,263.069 322.348 C 262.942 322.474,255.508 318.719,246.548 314.003 C 222.624 301.410,224.395 301.411,200.417 313.988 C 191.409 318.713,183.934 322.476,183.807 322.349 C 183.680 322.222,185.009 313.889,186.761 303.832 C 191.363 277.402,191.966 279.285,172.961 260.722 C 165.474 253.408,159.490 247.281,159.665 247.106 C 159.840 246.931,168.196 245.578,178.234 244.099 C 204.657 240.206,203.049 241.382,214.823 217.342 C 219.285 208.234,223.161 200.781,223.438 200.781 C 223.714 200.781,227.577 208.207,232.022 217.283 " stroke="none" fill="#000000" fill-rule="evenodd" data-darkreader-inline-fill="" data-darkreader-inline-stroke="" >

    </path></g>
</svg>